<svg width="520px" height="65px" viewBox="0 0 520 65" version="1.1" xmlns="http://www.w3.org/2000/svg" xmlns:xlink="http://www.w3.org/1999/xlink">
    <g transform="translate(0.000000, -2.000000)" stroke="none" stroke-width="1" fill-rule="evenodd" fill="currentcolor">
        <rect x="0" y="37" width="10" height="30" rx="5"></rect>
        <rect x="15" y="22" width="10" height="45" rx="5"></rect>
        <rect x="30" y="2" width="10" height="55" rx="5"></rect>
        <rect x="45" y="22" width="10" height="45" rx="5"></rect>
        <rect x="60" y="37" width="10" height="30" rx="5"></rect>
        <path d="M125.195509,65 L121.199472,54.9872881 L101.291942,54.9872881 L97.5138705,65 L84,65 L105.5786,14 L117.639366,14 L139,65 L125.195509,65 Z M111.391017,27.6144068 L104.852048,45.1186441 L117.784676,45.1186441 L111.391017,27.6144068 Z"></path>
        <path d="M195,39.7828418 C195,43.8364814 194.297889,47.5401977 192.893645,50.8941019 C191.489401,54.248006 189.540436,57.119291 187.046693,59.5080429 C184.552949,61.8967948 181.587133,63.7426208 178.149157,65.0455764 C174.71118,66.348532 170.982727,67 166.963684,67 C162.944641,67 159.228292,66.348532 155.814527,65.0455764 C152.400761,63.7426208 149.447051,61.8967948 146.953307,59.5080429 C144.459564,57.119291 142.510599,54.248006 141.106355,50.8941019 C139.702111,47.5401977 139,43.8364814 139,39.7828418 C139,35.6809446 139.702111,31.9772283 141.106355,28.6715818 C142.510599,25.3659352 144.459564,22.5549714 146.953307,20.2386059 C149.447051,17.9222404 152.400761,16.1367355 155.814527,14.8820375 C159.228292,13.6273396 162.944641,13 166.963684,13 C170.982727,13 174.71118,13.6273396 178.149157,14.8820375 C181.587133,16.1367355 184.552949,17.9222404 187.046693,20.2386059 C189.540436,22.5549714 191.489401,25.3659352 192.893645,28.6715818 C194.297889,31.9772283 195,35.6809446 195,39.7828418 Z M181.708171,39.7828418 C181.708171,37.5629916 181.34501,35.4879453 180.618677,33.5576408 C179.892344,31.6273362 178.887598,29.9745377 177.60441,28.5991957 C176.321221,27.2238537 174.771734,26.1380737 172.955901,25.3418231 C171.140069,24.5455724 169.142683,24.1474531 166.963684,24.1474531 C164.784684,24.1474531 162.799404,24.5455724 161.007782,25.3418231 C159.216161,26.1380737 157.666673,27.2238537 156.359274,28.5991957 C155.051874,29.9745377 154.047128,31.6273362 153.345006,33.5576408 C152.642885,35.4879453 152.291829,37.5629916 152.291829,39.7828418 C152.291829,42.0992073 152.65499,44.2345747 153.381323,46.189008 C154.107656,48.1434414 155.112402,49.8203683 156.39559,51.2198391 C157.678779,52.6193099 159.216161,53.7171542 161.007782,54.5134048 C162.799404,55.3096555 164.784684,55.7077748 166.963684,55.7077748 C169.142683,55.7077748 171.127963,55.3096555 172.919585,54.5134048 C174.711207,53.7171542 176.260694,52.6193099 177.568093,51.2198391 C178.875493,49.8203683 179.892344,48.1434414 180.618677,46.189008 C181.34501,44.2345747 181.708171,42.0992073 181.708171,39.7828418 Z"></path>
        <polygon points="237.142857 65 216.785714 31.6483051 216.571429 31.6483051 216.857143 65 205 65 205 14 218.928571 14 239.214286 47.279661 239.428571 47.279661 239.142857 14 251 14 251 65"></polygon>
        <polygon points="261 65 261 14 295.688259 14 295.688259 24.4449153 273.024291 24.4449153 273.024291 34.0254237 294.449393 34.0254237 294.449393 43.8940678 273.024291 43.8940678 273.024291 54.4830508 297 54.4830508 297 65"></polygon>
        <path d="M338.142329,27.6612903 C337.085022,26.3064448 335.703336,25.2298427 333.997227,24.4314516 C332.291119,23.6330605 330.64511,23.233871 329.05915,23.233871 C328.24214,23.233871 327.413128,23.3064509 326.572089,23.4516129 C325.731049,23.5967749 324.974125,23.8749979 324.301294,24.2862903 C323.628462,24.6975827 323.063773,25.2298354 322.607209,25.8830645 C322.150645,26.5362936 321.922366,27.3709627 321.922366,28.3870968 C321.922366,29.2580689 322.102586,29.9838681 322.463031,30.5645161 C322.823477,31.1451642 323.352122,31.6532236 324.048983,32.0887097 C324.745845,32.5241957 325.574857,32.9233853 326.536044,33.2862903 C327.497232,33.6491954 328.578552,34.0241916 329.780037,34.4112903 C331.510175,34.9919384 333.312375,35.633061 335.186691,36.3346774 C337.061008,37.0362938 338.76709,37.9677361 340.304991,39.1290323 C341.842891,40.2903284 343.116446,41.7298301 344.125693,43.4475806 C345.13494,45.1653312 345.639556,47.3064388 345.639556,49.8709677 C345.639556,52.8225954 345.098896,55.3749892 344.01756,57.5282258 C342.936224,59.6814624 341.482449,61.4596704 339.656192,62.8629032 C337.829935,64.266136 335.739383,65.3064482 333.384473,65.983871 C331.029563,66.6612937 328.6026,67 326.103512,67 C322.450998,67 318.918686,66.3588774 315.50647,65.0766129 C312.094253,63.7943484 309.258791,61.9677538 307,59.5967742 L315.073937,51.3225806 C316.323481,52.8709755 317.969491,54.1653174 320.012015,55.2056452 C322.054539,56.2459729 324.085018,56.766129 326.103512,56.766129 C327.01664,56.766129 327.905726,56.6693558 328.770795,56.4758065 C329.635864,56.2822571 330.392788,55.9677441 331.04159,55.5322581 C331.690391,55.096772 332.207022,54.5161327 332.591497,53.7903226 C332.975972,53.0645125 333.168207,52.1935535 333.168207,51.1774194 C333.168207,50.2096726 332.927914,49.3871002 332.44732,48.7096774 C331.966726,48.0322547 331.28189,47.4153254 330.392791,46.858871 C329.503692,46.3024166 328.398343,45.7943571 327.07671,45.3346774 C325.755077,44.8749977 324.253243,44.3790349 322.571165,43.8467742 C320.937145,43.3145135 319.339195,42.6854875 317.777264,41.9596774 C316.215334,41.2338673 314.821633,40.302425 313.596118,39.1653226 C312.370604,38.0282201 311.385401,36.6492017 310.640481,35.0282258 C309.89556,33.40725 309.523105,31.4354955 309.523105,29.1129032 C309.523105,26.2580502 310.099809,23.8145263 311.253235,21.7822581 C312.40666,19.7499898 313.920508,18.0806517 315.794824,16.7741935 C317.669141,15.4677354 319.783722,14.5120998 322.138632,13.9072581 C324.493542,13.3024163 326.872446,13 329.275416,13 C332.158979,13 335.102573,13.5322527 338.106285,14.5967742 C341.109997,15.6612956 343.741209,17.2338606 346,19.3145161 L338.142329,27.6612903 Z"></path>
        <path d="M401,45.5433287 C401,48.5951551 400.48051,51.3727523 399.441516,53.8762036 C398.402521,56.3796549 396.916539,58.5254381 394.983526,60.3136176 C393.050512,62.1017971 390.718849,63.4965562 387.988468,64.4979367 C385.258086,65.4993172 382.225717,66 378.891269,66 C375.508495,66 372.464044,65.4993172 369.757825,64.4979367 C367.051606,63.4965562 364.756187,62.1017971 362.871499,60.3136176 C360.986811,58.5254381 359.537073,56.3796549 358.522241,53.8762036 C357.507408,51.3727523 357,48.5951551 357,45.5433287 L357,14 L369.3229,14 L369.3229,44.5419532 C369.3229,45.924812 369.504117,47.236124 369.866557,48.4759285 C370.228997,49.7157329 370.78473,50.8243876 371.533773,51.8019257 C372.282815,52.7794639 373.27347,53.55433 374.505766,54.1265475 C375.738062,54.6987649 377.224044,54.9848693 378.963756,54.9848693 C380.703468,54.9848693 382.18945,54.6987649 383.421746,54.1265475 C384.654042,53.55433 385.656778,52.7794639 386.429984,51.8019257 C387.203189,50.8243876 387.758922,49.7157329 388.097199,48.4759285 C388.435477,47.236124 388.604613,45.924812 388.604613,44.5419532 L388.604613,14 L401,14 L401,45.5433287 Z"></path>
        <polygon points="411 65 411 14 423 14 423 65"></polygon>
        <polygon points="459.639229 24.5169492 459.639229 65 447.360771 65 447.360771 24.5169492 433 24.5169492 433 14 474 14 474 24.5169492"></polygon>
        <polygon points="484 65 484 14 518.688259 14 518.688259 24.4449153 496.024291 24.4449153 496.024291 34.0254237 517.449393 34.0254237 517.449393 43.8940678 496.024291 43.8940678 496.024291 54.4830508 520 54.4830508 520 65"></polygon>
    </g>
</svg>